<svg xmlns="http://www.w3.org/2000/svg" width="2200" height="2200" viewBox="0 0 2200 2200">
  <g id="Group_17" data-name="Group 17" transform="translate(-6721 3727)">
    <path id="Subtraction_5" data-name="Subtraction 5" d="M1100,2200c-18.827,0-37.872-.482-56.606-1.431-18.595-.943-37.39-2.372-55.862-4.248-18.351-1.864-36.872-4.218-55.051-7-18.068-2.761-36.293-6.015-54.169-9.674-17.768-3.636-35.673-7.768-53.219-12.283-17.445-4.488-35.007-9.475-52.2-14.823-17.1-5.318-34.292-11.136-51.111-17.294-16.736-6.128-33.542-12.754-49.953-19.7-16.339-6.911-32.733-14.322-48.726-22.028-15.928-7.675-31.886-15.848-47.43-24.292-15.488-8.414-30.987-17.325-46.065-26.486-15.033-9.134-30.048-18.76-44.631-28.612-14.548-9.829-29.058-20.147-43.127-30.668-14.043-10.5-28.024-21.489-41.554-32.655-13.514-11.152-26.942-22.785-39.913-34.574s-25.817-24.037-38.2-36.422-24.643-25.242-36.422-38.2-23.418-26.4-34.574-39.913c-11.169-13.535-22.156-27.516-32.655-41.555-10.521-14.069-20.84-28.579-30.668-43.127-9.856-14.588-19.482-29.6-28.612-44.631-9.159-15.073-18.07-30.572-26.487-46.064-8.446-15.546-16.619-31.5-24.292-47.43-7.706-15.993-15.118-32.387-22.028-48.726-6.944-16.417-13.571-33.223-19.7-49.953-6.157-16.815-11.976-34.011-17.294-51.11-5.347-17.191-10.334-34.753-14.823-52.2-4.515-17.549-8.648-35.454-12.283-53.219-3.659-17.881-6.914-36.106-9.674-54.169-2.779-18.187-5.132-36.709-6.995-55.051C3.8,1194,2.374,1175.2,1.431,1156.606.482,1137.871,0,1118.826,0,1100s.482-37.872,1.431-56.606C2.374,1024.8,3.8,1006,5.679,987.532c1.863-18.342,4.216-36.863,6.995-55.051,2.761-18.065,6.015-36.29,9.674-54.169,3.635-17.764,7.768-35.67,12.283-53.219,4.488-17.445,9.475-35.007,14.823-52.2,5.319-17.1,11.138-34.3,17.294-51.111,6.126-16.731,12.753-33.537,19.7-49.953,6.911-16.339,14.322-32.733,22.028-48.726,7.675-15.928,15.848-31.886,24.292-47.43,8.414-15.49,17.326-30.988,26.487-46.065,9.131-15.027,18.757-30.043,28.612-44.631,9.829-14.548,20.147-29.058,30.668-43.127,10.5-14.043,21.489-28.024,32.655-41.554,11.153-13.514,22.785-26.942,34.574-39.913s24.034-25.814,36.422-38.2,25.242-24.643,38.2-36.422,26.4-23.421,39.913-34.574c13.53-11.166,27.511-22.153,41.554-32.655,14.069-10.521,28.579-20.84,43.127-30.668,14.587-9.855,29.6-19.481,44.631-28.612,15.077-9.161,30.575-18.072,46.065-26.487,15.544-8.444,31.5-16.618,47.43-24.292,15.993-7.706,32.387-15.118,48.726-22.028,16.415-6.943,33.221-13.57,49.953-19.7,16.813-6.156,34.009-11.975,51.111-17.294,17.192-5.347,34.754-10.334,52.2-14.823,17.549-4.515,35.454-8.648,53.219-12.283,17.879-3.659,36.1-6.913,54.169-9.674C950.668,9.9,969.19,7.542,987.532,5.679,1006,3.8,1024.8,2.374,1043.394,1.431,1062.128.482,1081.173,0,1100,0s37.871.482,56.606,1.431c18.595.943,37.39,2.372,55.863,4.248,18.342,1.863,36.863,4.216,55.051,6.995,18.063,2.76,36.289,6.015,54.169,9.674,17.764,3.635,35.67,7.768,53.219,12.283,17.446,4.489,35.008,9.476,52.2,14.823,17.1,5.318,34.3,11.137,51.11,17.294,16.729,6.125,33.536,12.752,49.953,19.7,16.339,6.911,32.733,14.322,48.726,22.028,15.926,7.674,31.883,15.847,47.43,24.292,15.493,8.416,30.991,17.328,46.064,26.487,15.026,9.13,30.042,18.756,44.631,28.612,14.548,9.829,29.058,20.147,43.127,30.668,14.039,10.5,28.02,21.486,41.555,32.655,13.517,11.156,26.946,22.788,39.913,34.574s25.814,24.034,38.2,36.422,24.64,25.239,36.422,38.2,23.421,26.4,34.574,39.913c11.166,13.53,22.153,27.511,32.655,41.554,10.521,14.069,20.84,28.579,30.668,43.127,9.852,14.582,19.478,29.6,28.612,44.631,9.161,15.078,18.073,30.576,26.486,46.065,8.444,15.544,16.617,31.5,24.292,47.43,7.706,15.993,15.118,32.387,22.028,48.726,6.941,16.41,13.568,33.216,19.7,49.953,6.158,16.818,11.976,34.014,17.294,51.111,5.347,17.192,10.334,34.754,14.823,52.2,4.514,17.546,8.647,35.451,12.283,53.219,3.658,17.876,6.913,36.1,9.674,54.169,2.778,18.178,5.132,36.7,7,55.051,1.876,18.472,3.305,37.268,4.248,55.862.949,18.734,1.431,37.779,1.431,56.606s-.482,37.871-1.431,56.606c-.943,18.595-2.372,37.39-4.248,55.863-1.864,18.351-4.218,36.872-7,55.051-2.76,18.067-6.015,36.292-9.674,54.169-3.636,17.768-7.768,35.673-12.283,53.219-4.489,17.446-9.476,35.008-14.823,52.2-5.317,17.094-11.135,34.29-17.294,51.11-6.127,16.734-12.754,33.541-19.7,49.953-6.911,16.339-14.322,32.733-22.028,48.726-7.674,15.926-15.847,31.883-24.292,47.43-8.416,15.491-17.327,30.99-26.486,46.064-9.134,15.032-18.76,30.048-28.612,44.631-9.829,14.548-20.147,29.058-30.668,43.127-10.5,14.039-21.486,28.02-32.655,41.555-11.156,13.517-22.788,26.946-34.574,39.913s-24.037,25.817-36.422,38.2-25.239,24.64-38.2,36.422-26.4,23.418-39.913,34.574c-13.535,11.169-27.516,22.156-41.555,32.655-14.069,10.521-28.579,20.84-43.127,30.668-14.583,9.852-29.6,19.479-44.631,28.612-15.075,9.159-30.573,18.071-46.064,26.486-15.546,8.446-31.5,16.619-47.43,24.292-15.993,7.706-32.387,15.118-48.726,22.028-16.412,6.942-33.219,13.569-49.953,19.7-16.82,6.159-34.016,11.977-51.11,17.294-17.191,5.347-34.753,10.334-52.2,14.823-17.546,4.514-35.451,8.647-53.219,12.283-17.877,3.658-36.1,6.913-54.169,9.674-18.178,2.778-36.7,5.132-55.051,7-18.473,1.876-37.268,3.305-55.863,4.248C1137.871,2199.518,1118.826,2200,1100,2200Zm0-2050c-523.832,0-950,426.168-950,950s426.168,950,950,950,950-426.168,950-950S1623.832,150,1100,150Z" transform="translate(6721 -3727)" fill="#adadad"/>
    <text id="G" transform="translate(7667 -1919)" fill="#adadad" font-size="800" font-family="Poppins-Bold, Poppins" font-weight="700"><tspan x="0" y="0">G</tspan></text>
    <text id="R" transform="translate(7366 -2774)" fill="#adadad" font-size="800" font-family="Poppins-Bold, Poppins" font-weight="700"><tspan x="0" y="0">R</tspan></text>
    <rect id="Rectangle_46" data-name="Rectangle 46" width="136.5" height="736" transform="translate(7412.132 -2652)" fill="#adadad"/>
    <path id="Subtraction_6" data-name="Subtraction 6" d="M136.5,966.069h0v-.013C121.072,906.047,70.045,856.388,0,833.22V0H136.5Z" transform="translate(8121.5 -3339)" fill="#adadad"/>
    <rect id="Rectangle_48" data-name="Rectangle 48" width="807" height="136.5" transform="translate(7412.166 -2720)" fill="#adadad"/>
  </g>
</svg>
