<svg xmlns="http://www.w3.org/2000/svg" width="24" height="22.212" viewBox="0 0 24 22.212">
  <g id="box" transform="translate(-1.185 -2.097)">
    <path id="Path_17" data-name="Path 17" d="M10.489,12.423,19.432,7.26,15.225,4.832,6.283,9.995Z" fill="gray"/>
    <path id="Path_18" data-name="Path 18" d="M10.146,13.048,1.185,7.884V18.212l8.961,5.164Z" fill="gray"/>
    <rect id="Rectangle_23" data-name="Rectangle 23" width="0.979" height="0.979" transform="translate(18.077 18.335)" fill="gray"/>
    <path id="Path_19" data-name="Path 19" d="M10.867,13.048V23.376l4.893-2.829V13.091A1.547,1.547,0,0,1,17.3,11.536h1.283a1.264,1.264,0,0,1,1.206-.927h-.011V7.884Z" fill="gray"/>
    <rect id="Rectangle_24" data-name="Rectangle 24" width="3.142" height="1.082" rx="0.523" transform="translate(19.262 11.33)" fill="gray"/>
    <path id="Path_20" data-name="Path 20" d="M14.5,4.416,10.489,2.1,1.546,7.26,5.562,9.579Z" fill="gray"/>
    <path id="Path_21" data-name="Path 21" d="M24.356,12.258h-1.3a1.233,1.233,0,0,1-1.192.876H19.788a1.233,1.233,0,0,1-1.192-.876H17.3a.825.825,0,0,0-.818.833V23.5a.8.8,0,0,0,.818.81h7.057a.813.813,0,0,0,.828-.81V13.091a.834.834,0,0,0-.828-.833Zm-7,2.422a.36.36,0,0,1,.358-.362h1.7a.365.365,0,0,1,.364.362v.243a.361.361,0,0,1-.362.36.347.347,0,0,1-.343-.243h-.994v.979h.014a.361.361,0,0,1,0,.721h-.377a.358.358,0,0,1-.358-.36Zm0,3.294a.361.361,0,0,1,.361-.361h1.7a.361.361,0,0,1,.361.361v1.7a.361.361,0,0,1-.361.361h-1.7a.361.361,0,0,1-.361-.361Zm.735,5.356h-.377a.348.348,0,0,1-.358-.348v-1.7a.37.37,0,0,1,.358-.374h1.7a.376.376,0,0,1,.364.374v.347a.362.362,0,1,1-.725,0h-.975v.979h.014a.361.361,0,0,1,0,.721Zm2.661-1.4-1.311,1.311a.361.361,0,0,1-.51,0l-.576-.576a.361.361,0,0,1,.51-.51l.321.321,1.056-1.056a.361.361,0,0,1,.51.51Zm0-6.657-1.311,1.311a.361.361,0,0,1-.51,0L18.355,16a.361.361,0,1,1,.51-.51l.321.321,1.056-1.056a.361.361,0,0,1,.51.51Zm3.189,7.236H21.677a.361.361,0,0,1,0-.721h2.264a.361.361,0,0,1,0,.721Zm0-3.3H21.677a.361.361,0,1,1,0-.721h2.264a.361.361,0,0,1,0,.721Zm0-3.3H21.677a.361.361,0,0,1,0-.721h2.264a.361.361,0,0,1,0,.721Z" fill="gray"/>
  </g>
</svg>
