<svg xmlns="http://www.w3.org/2000/svg" width="81.036" height="100" viewBox="0 0 81.036 100">
  <g id="staff" transform="translate(-9.482)">
    <g id="Group_3" data-name="Group 3">
      <g id="Group_2" data-name="Group 2">
        <path id="Path_6" data-name="Path 6" d="M50,0A24.414,24.414,0,1,0,74.414,24.414,24.442,24.442,0,0,0,50,0Zm0,42.969A18.555,18.555,0,1,1,68.555,24.414,18.576,18.576,0,0,1,50,42.969Z" fill="#0d1a65"/>
      </g>
    </g>
    <g id="Group_5" data-name="Group 5">
      <g id="Group_4" data-name="Group 4">
        <path id="Path_7" data-name="Path 7" d="M88.616,87.492a38.65,38.65,0,0,0-38.3-32.8h-.759a38.618,38.618,0,0,0-38.17,32.8L9.482,100H90.518ZM47.07,94.141H16.3l.877-5.767a32.743,32.743,0,0,1,19.291-25.1l10.6,16.4Zm-4.852-32.76a32.729,32.729,0,0,1,7.335-.834h.759a33.154,33.154,0,0,1,7.458.851L50,73.413ZM52.93,94.141h0V79.673L63.521,63.3a32.7,32.7,0,0,1,19.3,25.078l.877,5.767H52.93Z" fill="#0d1a65"/>
      </g>
    </g>
  </g>
</svg>
