<svg xmlns="http://www.w3.org/2000/svg" width="100" height="90.385" viewBox="0 0 100 90.385">
  <path id="Path_3" data-name="Path 3" d="M97.115,42.433H75.961V3.01A2.885,2.885,0,0,0,73.076.125H26.923A2.885,2.885,0,0,0,24.038,3.01V42.433H2.884A2.884,2.884,0,0,0,0,45.317V87.625A2.885,2.885,0,0,0,2.884,90.51H97.115A2.885,2.885,0,0,0,100,87.625V45.317a2.884,2.884,0,0,0-2.885-2.884ZM68.269,48.2h9.615V61.664H68.269ZM54.808,5.894V19.356H45.192V5.894Zm-25,0h9.615V22.24a2.884,2.884,0,0,0,2.885,2.885H57.692a2.884,2.884,0,0,0,2.885-2.885V5.894h9.615V42.433H29.808ZM30.769,48.2V61.664H21.154V48.2Zm-25,0h9.615V64.548a2.885,2.885,0,0,0,2.885,2.885H33.654a2.885,2.885,0,0,0,2.885-2.885V48.2H47.115V84.74H5.769ZM94.231,84.74H52.885V48.2H62.5V64.548a2.885,2.885,0,0,0,2.885,2.885H80.769a2.885,2.885,0,0,0,2.885-2.885V48.2H94.231Zm0,0" transform="translate(0 -0.125)" fill="#ffffff"/>
</svg>
