<svg id="hotel-supplier" xmlns="http://www.w3.org/2000/svg" width="24" height="23.703" viewBox="0 0 24 23.703">
  <path id="Path_10" data-name="Path 10" d="M8.664,19.469,5.849,17.731l.291-.8-.033.013a2.027,2.027,0,0,1-2.765-1.658l-.4-3.6c-.007-.061,0-.12,0-.18L1.258,16.118a3.069,3.069,0,0,0,.127,1.938c.035.125,1.183,3.311,1.183,3.311l-2.29,3.1A1.419,1.419,0,1,0,2.56,26.152l2.75-3.72A1.419,1.419,0,0,0,5.5,21.088l-.117-.311,1.046.646L6.084,25.18A1.419,1.419,0,0,0,7.37,26.722c.044,0,.087.006.13.006a1.42,1.42,0,0,0,1.412-1.291l.42-4.632A1.419,1.419,0,0,0,8.664,19.469Z" transform="translate(0 -3.024)" fill="gray"/>
  <path id="Path_11" data-name="Path 11" d="M8.139,10.342l.108.962.888-.354a2.423,2.423,0,0,0-4.449-1.8,2.017,2.017,0,0,1,3.454,1.19Z" transform="translate(-1.171 -2.134)" fill="gray"/>
  <path id="Path_12" data-name="Path 12" d="M8.472,5.215A2.509,2.509,0,1,0,5.964,2.707,2.509,2.509,0,0,0,8.472,5.215Z" transform="translate(-1.491 -0.198)" fill="gray"/>
  <path id="Path_13" data-name="Path 13" d="M27.726,19.793h-7.5a1.064,1.064,0,0,0-1.064,1.064v2.99a1.064,1.064,0,0,0,1.064,1.064h7.5a1.064,1.064,0,0,0,1.064-1.064v-2.99A1.064,1.064,0,0,0,27.726,19.793Z" transform="translate(-4.79 -5.096)" fill="gray"/>
  <path id="Path_14" data-name="Path 14" d="M19.076,16.235h4.181a1.064,1.064,0,0,0,1.064-1.064V12.507a1.064,1.064,0,0,0-1.064-1.064H19.076a1.064,1.064,0,0,0-1.064,1.064v2.664A1.064,1.064,0,0,0,19.076,16.235Z" transform="translate(-4.503 -3.009)" fill="gray"/>
  <path id="Path_15" data-name="Path 15" d="M23.218,23.534H13.893V14.259a.811.811,0,0,0-.811-.811h-1.22a1.214,1.214,0,0,0-1.576-1.583L7.634,12.921,7.408,10.9a1.216,1.216,0,1,0-2.417.27l.4,3.6a1.216,1.216,0,0,0,1.658,1l2.643-1.053a.8.8,0,0,0,.65.351h1.926v9.275a.811.811,0,0,0,.811.811h.99a1.343,1.343,0,0,0,2.632,0h3.044a1.343,1.343,0,0,0,2.632,0h.838a.811.811,0,0,0,0-1.622Z" transform="translate(-1.246 -2.603)" fill="gray"/>
</svg>
